{
  "accessors": [
    {
      "bufferView": 2,
      "componentType": 5126,
      "count": 307,
      "max": [
        9.405409812927246,
        9.405409812927246,
        8.304991722106934
      ],
      "min": [
        -9.405409812927246,
        -9.405409812927246,
        -8.304991722106934
      ],
      "type": "VEC3"
    },
    {
      "bufferView": 2,
      "byteOffset": 3684,
      "componentType": 5126,
      "count": 307,
      "max": [
        0.9972065687179565,
        0.9972065687179565,
        1.0
      ],
      "min": [
        -0.9972065687179565,
        -0.9972066283226013,
        -1.0
      ],
      "type": "VEC3"
    },
    {
      "bufferView": 3,
      "componentType": 5126,
      "count": 307,
      "max": [
        0.953950047492981,
        0.47241485118865967,
        0.9354042410850525,
        1.0
      ],
      "min": [
        -0.4726814329624176,
        -0.9957166314125061,
        -0.9972065091133118,
        1.0
      ],
      "type": "VEC4"
    },
    {
      "bufferView": 1,
      "componentType": 5126,
      "count": 307,
      "max": [
        0.7638564109802246,
        0.999500036239624
      ],
      "min": [
        0.0005000000237487257,
        0.0005000000237487257
      ],
      "type": "VEC2"
    },
    {
      "bufferView": 0,
      "componentType": 5125,
      "count": 1428,
      "type": "SCALAR"
    },
    {
      "bufferView": 2,
      "byteOffset": 7368,
      "componentType": 5126,
      "count": 128,
      "max": [
        3.577608108520508,
        0.05000181868672371,
        11.181380271911621
      ],
      "min": [
        -3.577608585357666,
        -0.05000181868672371,
        -11.181381225585938
      ],
      "type": "VEC3"
    },
    {
      "bufferView": 2,
      "byteOffset": 8904,
      "componentType": 5126,
      "count": 128,
      "max": [
        0.7069045901298523,
        0.7082581520080566,
        0.8523250222206116
      ],
      "min": [
        -0.7069045901298523,
        -0.7082581520080566,
        -0.7677803039550781
      ],
      "type": "VEC3"
    },
    {
      "bufferView": 3,
      "byteOffset": 4912,
      "componentType": 5126,
      "count": 128,
      "max": [
        0.839468777179718,
        -0.4418085217475891,
        0.3167837858200073,
        1.0
      ],
      "min": [
        -0.8394687175750732,
        -1.0,
        -0.3167790174484253,
        -1.0
      ],
      "type": "VEC4"
    },
    {
      "bufferView": 1,
      "byteOffset": 2456,
      "componentType": 5126,
      "count": 128,
      "max": [
        0.971842348575592,
        0.5314987301826477
      ],
      "min": [
        0.9705337285995483,
        0.04652955010533333
      ],
      "type": "VEC2"
    },
    {
      "bufferView": 0,
      "byteOffset": 5712,
      "componentType": 5125,
      "count": 348,
      "type": "SCALAR"
    },
    {
      "bufferView": 2,
      "byteOffset": 10440,
      "componentType": 5126,
      "count": 338,
      "max": [
        14.712677001953125,
        8.943882942199707,
        2.3813629150390625
      ],
      "min": [
        -1.2518401145935059,
        -4.619508743286133,
        -2.180738687515259
      ],
      "type": "VEC3"
    },
    {
      "bufferView": 2,
      "byteOffset": 14496,
      "componentType": 5126,
      "count": 338,
      "max": [
        0.9952003359794617,
        0.9899773001670837,
        0.9927065968513489
      ],
      "min": [
        -0.9888889789581299,
        -0.9921677112579346,
        -0.9781981110572815
      ],
      "type": "VEC3"
    },
    {
      "bufferView": 3,
      "byteOffset": 6960,
      "componentType": 5126,
      "count": 338,
      "max": [
        0.9945792555809021,
        0.9994305372238159,
        0.9924116730690002,
        1.0
      ],
      "min": [
        -0.9930366277694702,
        -0.9972387552261353,
        -0.9937606453895569,
        1.0
      ],
      "type": "VEC4"
    },
    {
      "bufferView": 1,
      "byteOffset": 3480,
      "componentType": 5126,
      "count": 338,
      "max": [
        0.6512876749038696,
        0.71584552526474
      ],
      "min": [
        0.3701794147491455,
        0.4297388792037964
      ],
      "type": "VEC2"
    },
    {
      "bufferView": 0,
      "byteOffset": 7104,
      "componentType": 5125,
      "count": 1266,
      "type": "SCALAR"
    },
    {
      "bufferView": 2,
      "byteOffset": 18552,
      "componentType": 5126,
      "count": 88,
      "max": [
        4.672112941741943,
        2.5189943313598633,
        15.4392728805542
      ],
      "min": [
        -4.778949737548828,
        -2.464434862136841,
        -15.428016662597656
      ],
      "type": "VEC3"
    },
    {
      "bufferView": 2,
      "byteOffset": 19608,
      "componentType": 5126,
      "count": 88,
      "max": [
        0.892416775226593,
        0.9122413396835327,
        0.8586025238037109
      ],
      "min": [
        -0.8924176096916199,
        -0.9250362515449524,
        -0.8921586275100708
      ],
      "type": "VEC3"
    },
    {
      "bufferView": 3,
      "byteOffset": 12368,
      "componentType": 5126,
      "count": 88,
      "max": [
        0.8846622705459595,
        0.44136843085289,
        0.8430570363998413,
        1.0
      ],
      "min": [
        -0.9140433073043823,
        -0.9311118125915527,
        -0.8508734703063965,
        -1.0
      ],
      "type": "VEC4"
    },
    {
      "bufferView": 1,
      "byteOffset": 6184,
      "componentType": 5126,
      "count": 88,
      "max": [
        0.9718442559242249,
        0.9685134887695313
      ],
      "min": [
        0.9703805446624756,
        0.041799068450927734
      ],
      "type": "VEC2"
    },
    {
      "bufferView": 0,
      "byteOffset": 12168,
      "componentType": 5125,
      "count": 516,
      "type": "SCALAR"
    },
    {
      "bufferView": 2,
      "byteOffset": 20664,
      "componentType": 5126,
      "count": 40,
      "max": [
        0.5502575635910034,
        0.05000302195549011,
        18.738704681396484
      ],
      "min": [
        -0.550257682800293,
        -0.05000308156013489,
        -18.73870277404785
      ],
      "type": "VEC3"
    },
    {
      "bufferView": 2,
      "byteOffset": 21144,
      "componentType": 5126,
      "count": 40,
      "max": [
        0.9999709725379944,
        0.9999985694885254,
        0.9012132287025452
      ],
      "min": [
        -0.9999709725379944,
        -0.9999986290931702,
        -0.6002902388572693
      ],
      "type": "VEC3"
    },
    {
      "bufferView": 3,
      "byteOffset": 13776,
      "componentType": 5126,
      "count": 40,
      "max": [
        0.9997147917747498,
        -0.0015809852629899979,
        0.8511196374893188,
        1.0
      ],
      "min": [
        -0.9999520778656006,
        -1.0,
        -0.7713497877120972,
        -1.0
      ],
      "type": "VEC4"
    },
    {
      "bufferView": 1,
      "byteOffset": 6888,
      "componentType": 5126,
      "count": 40,
      "max": [
        0.9718390703201294,
        0.9835119247436523
      ],
      "min": [
        0.9705325365066528,
        0.059904083609580994
      ],
      "type": "VEC2"
    },
    {
      "bufferView": 0,
      "byteOffset": 14232,
      "componentType": 5125,
      "count": 228,
      "type": "SCALAR"
    },
    {
      "bufferView": 2,
      "byteOffset": 21624,
      "componentType": 5126,
      "count": 128,
      "max": [
        1.730126142501831,
        0.9281861782073975,
        16.647262573242188
      ],
      "min": [
        -1.730419397354126,
        -0.918495774269104,
        -16.647260665893555
      ],
      "type": "VEC3"
    },
    {
      "bufferView": 2,
      "byteOffset": 23160,
      "componentType": 5126,
      "count": 128,
      "max": [
        0.9527639746665955,
        0.9530544281005859,
        0.6078084111213684
      ],
      "min": [
        -0.9527639150619507,
        -0.9530543684959412,
        -0.9326003193855286
      ],
      "type": "VEC3"
    },
    {
      "bufferView": 3,
      "byteOffset": 14416,
      "componentType": 5126,
      "count": 128,
      "max": [
        0.7393079996109009,
        0.2705440819263458,
        0.3881150484085083,
        1.0
      ],
      "min": [
        -0.9492467641830444,
        -0.9254265427589417,
        -0.3881196975708008,
        -1.0
      ],
      "type": "VEC4"
    },
    {
      "bufferView": 1,
      "byteOffset": 7208,
      "componentType": 5126,
      "count": 128,
      "max": [
        0.9718408584594727,
        0.8470470905303955
      ],
      "min": [
        0.9705333113670349,
        0.06332020461559296
      ],
      "type": "VEC2"
    },
    {
      "bufferView": 0,
      "byteOffset": 15144,
      "componentType": 5125,
      "count": 348,
      "type": "SCALAR"
    },
    {
      "bufferView": 2,
      "byteOffset": 24696,
      "componentType": 5126,
      "count": 1444,
      "max": [
        1.3984624147415161,
        2.118102550506592,
        1.672398328781128
      ],
      "min": [
        -1.5476493835449219,
        -0.6228609681129456,
        -1.3068594932556152
      ],
      "type": "VEC3"
    },
    {
      "bufferView": 2,
      "byteOffset": 42024,
      "componentType": 5126,
      "count": 1444,
      "max": [
        0.9981797933578491,
        0.9995400905609131,
        1.0
      ],
      "min": [
        -0.9988023042678833,
        -0.9968203902244568,
        -0.9939239621162415
      ],
      "type": "VEC3"
    },
    {
      "bufferView": 3,
      "byteOffset": 16464,
      "componentType": 5126,
      "count": 1444,
      "max": [
        1.0,
        0.9976515769958496,
        0.9763967394828796,
        1.0
      ],
      "min": [
        -1.0,
        -0.9682334661483765,
        -0.9968268871307373,
        -1.0
      ],
      "type": "VEC4"
    },
    {
      "bufferView": 1,
      "byteOffset": 8232,
      "componentType": 5126,
      "count": 1444,
      "max": [
        1.010361909866333,
        0.9999977946281433
      ],
      "min": [
        -0.015951581299304962,
        -0.004755737259984016
      ],
      "type": "VEC2"
    },
    {
      "bufferView": 0,
      "byteOffset": 16536,
      "componentType": 5125,
      "count": 2982,
      "type": "SCALAR"
    },
    {
      "bufferView": 2,
      "byteOffset": 59352,
      "componentType": 5126,
      "count": 114,
      "max": [
        6.462921619415283,
        5.287209987640381,
        1.2661027908325195
      ],
      "min": [
        -13.395532608032227,
        -18.01658821105957,
        -0.6571325063705444
      ],
      "type": "VEC3"
    },
    {
      "bufferView": 2,
      "byteOffset": 60720,
      "componentType": 5126,
      "count": 114,
      "max": [
        0.8699411749839783,
        0.9758754968643188,
        0.9930759072303772
      ],
      "min": [
        -0.9100451469421387,
        -0.8614625334739685,
        -0.5248200297355652
      ],
      "type": "VEC3"
    },
    {
      "bufferView": 3,
      "byteOffset": 39568,
      "componentType": 5126,
      "count": 114,
      "max": [
        0.9369670152664185,
        0.9919360876083374,
        0.679845929145813,
        1.0
      ],
      "min": [
        -0.8658715486526489,
        -0.8700442910194397,
        -0.6157063245773315,
        -1.0
      ],
      "type": "VEC4"
    },
    {
      "bufferView": 1,
      "byteOffset": 19784,
      "componentType": 5126,
      "count": 114,
      "max": [
        1.010361909866333,
        0.9999977946281433
      ],
      "min": [
        -0.015951581299304962,
        -0.004755737259984016
      ],
      "type": "VEC2"
    },
    {
      "bufferView": 0,
      "byteOffset": 28464,
      "componentType": 5125,
      "count": 252,
      "type": "SCALAR"
    },
    {
      "bufferView": 2,
      "byteOffset": 62088,
      "componentType": 5126,
      "count": 1462,
      "max": [
        2.072739839553833,
        1.4164537191390991,
        1.6017687320709229
      ],
      "min": [
        -0.7030106782913208,
        -1.5996994972229004,
        -1.4969844818115234
      ],
      "type": "VEC3"
    },
    {
      "bufferView": 2,
      "byteOffset": 79632,
      "componentType": 5126,
      "count": 1462,
      "max": [
        0.9995149970054626,
        0.999735414981842,
        1.0
      ],
      "min": [
        -0.996547520160675,
        -0.9978079199790955,
        -0.9950557351112366
      ],
      "type": "VEC3"
    },
    {
      "bufferView": 3,
      "byteOffset": 41392,
      "componentType": 5126,
      "count": 1462,
      "max": [
        1.0,
        0.9815877079963684,
        0.9953201413154602,
        1.0
      ],
      "min": [
        -1.0,
        -0.9959104061126709,
        -0.9951969385147095,
        -1.0
      ],
      "type": "VEC4"
    },
    {
      "bufferView": 1,
      "byteOffset": 20696,
      "componentType": 5126,
      "count": 1462,
      "max": [
        1.010361909866333,
        0.9999977946281433
      ],
      "min": [
        -0.015951581299304962,
        -0.004755737259984016
      ],
      "type": "VEC2"
    },
    {
      "bufferView": 0,
      "byteOffset": 29472,
      "componentType": 5125,
      "count": 3018,
      "type": "SCALAR"
    },
    {
      "bufferView": 2,
      "byteOffset": 97176,
      "componentType": 5126,
      "count": 1384,
      "max": [
        0.7795611023902893,
        1.4396615028381348,
        1.7352701425552368
      ],
      "min": [
        -2.117835521697998,
        -1.3041727542877197,
        -1.2809970378875732
      ],
      "type": "VEC3"
    },
    {
      "bufferView": 2,
      "byteOffset": 113784,
      "componentType": 5126,
      "count": 1384,
      "max": [
        0.9995836615562439,
        0.9896125793457031,
        1.0
      ],
      "min": [
        -0.9992148280143738,
        -0.9985923767089844,
        -0.9982764720916748
      ],
      "type": "VEC3"
    },
    {
      "bufferView": 3,
      "byteOffset": 64784,
      "componentType": 5126,
      "count": 1384,
      "max": [
        1.0,
        0.9991748332977295,
        0.998451292514801,
        1.0
      ],
      "min": [
        -1.0,
        -0.9583794474601746,
        -0.9724324345588684,
        -1.0
      ],
      "type": "VEC4"
    },
    {
      "bufferView": 1,
      "byteOffset": 32392,
      "componentType": 5126,
      "count": 1384,
      "max": [
        1.010361909866333,
        0.9999977946281433
      ],
      "min": [
        -0.015951581299304962,
        -0.004755737259984016
      ],
      "type": "VEC2"
    },
    {
      "bufferView": 0,
      "byteOffset": 41544,
      "componentType": 5125,
      "count": 2856,
      "type": "SCALAR"
    },
    {
      "bufferView": 2,
      "byteOffset": 130392,
      "componentType": 5126,
      "count": 2138,
      "max": [
        0.9017356634140015,
        2.5567033290863037,
        1.7448642253875732
      ],
      "min": [
        -3.0766913890838623,
        -1.683187484741211,
        -2.6140058040618896
      ],
      "type": "VEC3"
    },
    {
      "bufferView": 2,
      "byteOffset": 156048,
      "componentType": 5126,
      "count": 2138,
      "max": [
        0.9983906149864197,
        0.9972356557846069,
        0.9998225569725037
      ],
      "min": [
        -0.9968037605285645,
        -0.9997487664222717,
        -0.9992684125900269
      ],
      "type": "VEC3"
    },
    {
      "bufferView": 3,
      "byteOffset": 86928,
      "componentType": 5126,
      "count": 2138,
      "max": [
        0.9999585747718811,
        1.0,
        0.9982080459594727,
        1.0
      ],
      "min": [
        -0.9991841912269592,
        -0.998496413230896,
        -0.9999969005584717,
        -1.0
      ],
      "type": "VEC4"
    },
    {
      "bufferView": 1,
      "byteOffset": 43464,
      "componentType": 5126,
      "count": 2138,
      "max": [
        1.010361909866333,
        1.0
      ],
      "min": [
        -0.015951581299304962,
        -0.004755737259984016
      ],
      "type": "VEC2"
    },
    {
      "bufferView": 0,
      "byteOffset": 52968,
      "componentType": 5125,
      "count": 5958,
      "type": "SCALAR"
    },
    {
      "bufferView": 2,
      "byteOffset": 181704,
      "componentType": 5126,
      "count": 2592,
      "max": [
        28.90103530883789,
        23.12798309326172,
        23.183631896972656
      ],
      "min": [
        -18.761924743652344,
        -24.065059661865234,
        -16.923511505126953
      ],
      "type": "VEC3"
    },
    {
      "bufferView": 2,
      "byteOffset": 212808,
      "componentType": 5126,
      "count": 2592,
      "max": [
        0.96001136302948,
        0.9952387809753418,
        0.9887626767158508
      ],
      "min": [
        -0.9988331198692322,
        -0.9976029992103577,
        -0.48454248905181885
      ],
      "type": "VEC3"
    },
    {
      "bufferView": 3,
      "byteOffset": 121136,
      "componentType": 5126,
      "count": 2592,
      "max": [
        0.9976029396057129,
        0.9952560663223267,
        0.8358266353607178,
        1.0
      ],
      "min": [
        -0.9952386617660522,
        -0.9990901947021484,
        -0.9998184442520142,
        1.0
      ],
      "type": "VEC4"
    },
    {
      "bufferView": 1,
      "byteOffset": 60568,
      "componentType": 5126,
      "count": 2592,
      "max": [
        0.9866002202033997,
        0.9980294704437256
      ],
      "min": [
        0.9635587334632874,
        0.0
      ],
      "type": "VEC2"
    },
    {
      "bufferView": 0,
      "byteOffset": 76800,
      "componentType": 5125,
      "count": 7128,
      "type": "SCALAR"
    }
  ],
  "asset": {
    "extras": {
      "author": "BrushDip (https://sketchfab.com/BrushDip)",
      "license": "CC-BY-4.0 (http://creativecommons.org/licenses/by/4.0/)",
      "source": "https://sketchfab.com/3d-models/flower-armeria-maritima-19778fa549cd4f21a7e5cdf036859beb",
      "title": "Flower - Armeria maritima"
    },
    "generator": "Sketchfab-14.59.0",
    "version": "2.0"
  },
  "bufferViews": [
    {
      "buffer": 0,
      "byteLength": 105312,
      "name": "floatBufferViews",
      "target": 34963
    },
    {
      "buffer": 0,
      "byteLength": 81304,
      "byteOffset": 105312,
      "byteStride": 8,
      "name": "floatBufferViews",
      "target": 34962
    },
    {
      "buffer": 0,
      "byteLength": 243912,
      "byteOffset": 186616,
      "byteStride": 12,
      "name": "floatBufferViews",
      "target": 34962
    },
    {
      "buffer": 0,
      "byteLength": 162608,
      "byteOffset": 430528,
      "byteStride": 16,
      "name": "floatBufferViews",
      "target": 34962
    }
  ],
  "buffers": [
    {
      "byteLength": 593136,
      "uri": "scene.bin"
    }
  ],
  "extensionsRequired": [
    "KHR_materials_pbrSpecularGlossiness"
  ],
  "extensionsUsed": [
    "KHR_materials_pbrSpecularGlossiness"
  ],
  "images": [
    {
      "uri": "textures/material_diffuse.png"
    },
    {
      "uri": "textures/material_specularGlossiness.png"
    },
    {
      "uri": "textures/material_normal.png"
    },
    {
      "uri": "textures/Flowers_diffuse.png"
    },
    {
      "uri": "textures/Flowers_normal.png"
    },
    {
      "uri": "textures/Grass_diffuse.png"
    }
  ],
  "materials": [
    {
      "doubleSided": true,
      "extensions": {
        "KHR_materials_pbrSpecularGlossiness": {
          "diffuseFactor": [
            1.0,
            1.0,
            1.0,
            1.0
          ],
          "diffuseTexture": {
            "index": 0
          },
          "glossinessFactor": 1.0,
          "specularFactor": [
            0.851812119808365,
            0.851812119808365,
            0.851812119808365
          ],
          "specularGlossinessTexture": {
            "index": 1
          }
        }
      },
      "name": "material",
      "normalTexture": {
        "index": 2
      }
    },
    {
      "alphaMode": "BLEND",
      "doubleSided": true,
      "extensions": {
        "KHR_materials_pbrSpecularGlossiness": {
          "diffuseFactor": [
            1.0,
            1.0,
            1.0,
            1.0
          ],
          "diffuseTexture": {
            "index": 3
          },
          "glossinessFactor": 0.5531445429167022,
          "specularFactor": [
            0.028952469188477523,
            0.028952469188477523,
            0.028952469188477523
          ]
        }
      },
      "name": "Flowers",
      "normalTexture": {
        "index": 4
      }
    },
    {
      "alphaMode": "BLEND",
      "doubleSided": true,
      "extensions": {
        "KHR_materials_pbrSpecularGlossiness": {
          "diffuseFactor": [
            1.0,
            1.0,
            1.0,
            1.0
          ],
          "diffuseTexture": {
            "index": 5
          },
          "glossinessFactor": 0.7664785264107471,
          "specularFactor": [
            0.17523862929867975,
            0.17523862929867975,
            0.17523862929867975
          ]
        }
      },
      "name": "Grass",
      "normalTexture": {
        "index": 2
      }
    }
  ],
  "meshes": [
    {
      "name": "Pot_Pot_0",
      "primitives": [
        {
          "attributes": {
            "NORMAL": 1,
            "POSITION": 0,
            "TANGENT": 2,
            "TEXCOORD_0": 3
          },
          "indices": 4,
          "material": 0,
          "mode": 4
        }
      ]
    },
    {
      "name": "FlowerStems_Pot_0",
      "primitives": [
        {
          "attributes": {
            "NORMAL": 6,
            "POSITION": 5,
            "TANGENT": 7,
            "TEXCOORD_0": 8
          },
          "indices": 9,
          "material": 0,
          "mode": 4
        }
      ]
    },
    {
      "name": "rocks-_Pot_0",
      "primitives": [
        {
          "attributes": {
            "NORMAL": 11,
            "POSITION": 10,
            "TANGENT": 12,
            "TEXCOORD_0": 13
          },
          "indices": 14,
          "material": 0,
          "mode": 4
        }
      ]
    },
    {
      "name": "FlowerStems_Pot_0",
      "primitives": [
        {
          "attributes": {
            "NORMAL": 16,
            "POSITION": 15,
            "TANGENT": 17,
            "TEXCOORD_0": 18
          },
          "indices": 19,
          "material": 0,
          "mode": 4
        }
      ]
    },
    {
      "name": "FlowerStems_Pot_0",
      "primitives": [
        {
          "attributes": {
            "NORMAL": 21,
            "POSITION": 20,
            "TANGENT": 22,
            "TEXCOORD_0": 23
          },
          "indices": 24,
          "material": 0,
          "mode": 4
        }
      ]
    },
    {
      "name": "FlowerStems_Pot_0",
      "primitives": [
        {
          "attributes": {
            "NORMAL": 26,
            "POSITION": 25,
            "TANGENT": 27,
            "TEXCOORD_0": 28
          },
          "indices": 29,
          "material": 0,
          "mode": 4
        }
      ]
    },
    {
      "name": "Flowers_Flowers_0",
      "primitives": [
        {
          "attributes": {
            "NORMAL": 31,
            "POSITION": 30,
            "TANGENT": 32,
            "TEXCOORD_0": 33
          },
          "indices": 34,
          "material": 1,
          "mode": 4
        }
      ]
    },
    {
      "name": "Flower-Internal-Planes-103_Flowers_0",
      "primitives": [
        {
          "attributes": {
            "NORMAL": 36,
            "POSITION": 35,
            "TANGENT": 37,
            "TEXCOORD_0": 38
          },
          "indices": 39,
          "material": 1,
          "mode": 4
        }
      ]
    },
    {
      "name": "Flowers_Flowers_0",
      "primitives": [
        {
          "attributes": {
            "NORMAL": 41,
            "POSITION": 40,
            "TANGENT": 42,
            "TEXCOORD_0": 43
          },
          "indices": 44,
          "material": 1,
          "mode": 4
        }
      ]
    },
    {
      "name": "Flowers_Flowers_0",
      "primitives": [
        {
          "attributes": {
            "NORMAL": 46,
            "POSITION": 45,
            "TANGENT": 47,
            "TEXCOORD_0": 48
          },
          "indices": 49,
          "material": 1,
          "mode": 4
        }
      ]
    },
    {
      "name": "Flowers_Flowers_0",
      "primitives": [
        {
          "attributes": {
            "NORMAL": 51,
            "POSITION": 50,
            "TANGENT": 52,
            "TEXCOORD_0": 53
          },
          "indices": 54,
          "material": 1,
          "mode": 4
        }
      ]
    },
    {
      "name": "Grass_Grass_0",
      "primitives": [
        {
          "attributes": {
            "NORMAL": 56,
            "POSITION": 55,
            "TANGENT": 57,
            "TEXCOORD_0": 58
          },
          "indices": 59,
          "material": 2,
          "mode": 4
        }
      ]
    }
  ],
  "nodes": [
    {
      "children": [
        1
      ],
      "matrix": [
        0.7689961281317892,
        -1.3856668229879946e-16,
        -0.012937056313733208,
        0.0,
        0.012937056313733208,
        -1.723372065516013e-16,
        0.7689961281317892,
        0.0,
        -1.4144595311455528e-16,
        -0.7691049575805664,
        -1.6998200763704633e-16,
        0.0,
        0.0,
        0.0,
        0.0,
        1.0
      ],
      "name": "Sketchfab_model"
    },
    {
      "children": [
        2
      ],
      "matrix": [
        0.009999999776482582,
        0.0,
        0.0,
        0.0,
        0.0,
        -0.009999999776482582,
        0.0,
        0.0,
        0.0,
        0.0,
        -0.009999999776482582,
        0.0,
        0.0,
        0.0,
        0.0,
        1.0
      ],
      "name": "eb6c73ae03734a88a190df75d8dfd363.fbx"
    },
    {
      "children": [
        3
      ],
      "name": "RootNode"
    },
    {
      "children": [
        4,
        6,
        8,
        11,
        14,
        16,
        19,
        22,
        25,
        28,
        31,
        34
      ],
      "name": "Flower"
    },
    {
      "children": [
        5
      ],
      "matrix": [
        1.0,
        0.0,
        0.0,
        0.0,
        0.0,
        1.0,
        0.0,
        0.0,
        0.0,
        0.0,
        1.0,
        0.0,
        -0.25923991203308105,
        0.12860703468322754,
        8.219594955444336,
        1.0
      ],
      "name": "Pot"
    },
    {
      "mesh": 0,
      "name": "Pot_Pot_0"
    },
    {
      "children": [
        7
      ],
      "matrix": [
        1.0,
        0.0,
        0.0,
        0.0,
        0.0,
        1.0,
        0.0,
        0.0,
        0.0,
        0.0,
        1.0,
        0.0,
        -5.549394607543945,
        -1.430511474609375e-06,
        27.559083938598633,
        1.0
      ],
      "name": "FlowerStems"
    },
    {
      "mesh": 1,
      "name": "FlowerStems_Pot_0"
    },
    {
      "children": [
        9
      ],
      "matrix": [
        0.9999999999999847,
        1.7484555314694902e-07,
        6.310887241768095e-30,
        0.0,
        -1.7484555314694637e-07,
        0.9999999999999695,
        1.7484555314694637e-07,
        0.0,
        3.0570967455262116e-14,
        -1.7484555314694372e-07,
        0.9999999999999847,
        0.0,
        0.15703725814819336,
        0.9346718788146973,
        15.605646133422852,
        1.0
      ],
      "name": "rocks-"
    },
    {
      "children": [
        10
      ],
      "matrix": [
        1.0,
        0.0,
        -0.0,
        0.0,
        0.0,
        1.0,
        0.0,
        0.0,
        0.0,
        0.0,
        1.0,
        0.0,
        -6.7304182052612305,
        -2.162187099456787,
        -0.10031185299158096,
        1.0
      ],
      "name": "Object_9"
    },
    {
      "mesh": 2,
      "name": "rocks-_Pot_0"
    },
    {
      "children": [
        12
      ],
      "matrix": [
        1.0,
        0.0,
        0.0,
        0.0,
        0.0,
        1.0,
        0.0,
        0.0,
        0.0,
        0.0,
        1.0,
        0.0,
        4.605589866638184,
        0.5957250595092773,
        32.235069274902344,
        1.0
      ],
      "name": "FlowerStems"
    },
    {
      "children": [
        13
      ],
      "matrix": [
        1.0,
        0.0,
        -0.0,
        0.0,
        0.0,
        1.0,
        0.0,
        0.0,
        0.0,
        0.0,
        1.0,
        0.0,
        0.05341815948486328,
        -0.02727973461151123,
        -0.005626678466796875,
        1.0
      ],
      "name": "Object_12"
    },
    {
      "mesh": 3,
      "name": "FlowerStems_Pot_0"
    },
    {
      "children": [
        15
      ],
      "matrix": [
        1.0,
        0.0,
        0.0,
        0.0,
        0.0,
        1.0,
        0.0,
        0.0,
        0.0,
        0.0,
        1.0,
        0.0,
        1.1515429019927979,
        -1.8979501724243164,
        34.56444549560547,
        1.0
      ],
      "name": "FlowerStems"
    },
    {
      "mesh": 4,
      "name": "FlowerStems_Pot_0"
    },
    {
      "children": [
        17
      ],
      "matrix": [
        1.0,
        0.0,
        0.0,
        0.0,
        0.0,
        1.0,
        0.0,
        0.0,
        0.0,
        0.0,
        1.0,
        0.0,
        -2.5519118309020996,
        0.21982860565185547,
        33.251434326171875,
        1.0
      ],
      "name": "FlowerStems"
    },
    {
      "children": [
        18
      ],
      "matrix": [
        1.0,
        0.0,
        -0.0,
        0.0,
        0.0,
        1.0,
        0.0,
        0.0,
        0.0,
        0.0,
        1.0,
        0.0,
        0.00014662742614746094,
        -0.0048452019691467285,
        0.0,
        1.0
      ],
      "name": "Object_17"
    },
    {
      "mesh": 5,
      "name": "FlowerStems_Pot_0"
    },
    {
      "children": [
        20
      ],
      "matrix": [
        1.0,
        0.0,
        0.0,
        0.0,
        0.0,
        1.0,
        0.0,
        0.0,
        0.0,
        0.0,
        1.0,
        0.0,
        -4.318820476531982,
        1.4265096187591553,
        50.06806182861328,
        1.0
      ],
      "name": "Flowers"
    },
    {
      "children": [
        21
      ],
      "matrix": [
        1.0,
        0.0,
        -0.0,
        0.0,
        0.0,
        1.0,
        0.0,
        0.0,
        0.0,
        0.0,
        1.0,
        0.0,
        0.07459354400634766,
        -0.7476208209991455,
        -0.182769775390625,
        1.0
      ],
      "name": "Object_20"
    },
    {
      "mesh": 6,
      "name": "Flowers_Flowers_0"
    },
    {
      "children": [
        23
      ],
      "matrix": [
        0.9999999999999959,
        2.384976127700601e-08,
        -8.742277657347551e-08,
        0.0,
        -2.384976891974787e-08,
        0.9999999999999959,
        -8.742277657347553e-08,
        0.0,
        8.74227744884628e-08,
        8.742277865848818e-08,
        0.9999999999999923,
        0.0,
        -2.191627025604248,
        2.395170211791992,
        0.6615180969238281,
        1.0
      ],
      "name": "Flower-Internal-Planes-103"
    },
    {
      "children": [
        24
      ],
      "matrix": [
        1.0,
        0.0,
        -0.0,
        0.0,
        0.0,
        1.0,
        0.0,
        0.0,
        0.0,
        0.0,
        1.0,
        0.0,
        3.4663054943084717,
        6.364688873291016,
        -0.30448517203330994,
        1.0
      ],
      "name": "Object_23"
    },
    {
      "mesh": 7,
      "name": "Flower-Internal-Planes-103_Flowers_0"
    },
    {
      "children": [
        26
      ],
      "matrix": [
        1.0,
        0.0,
        0.0,
        0.0,
        0.0,
        1.0,
        0.0,
        0.0,
        0.0,
        0.0,
        1.0,
        0.0,
        -9.20889663696289,
        0.3034505844116211,
        38.98828887939453,
        1.0
      ],
      "name": "Flowers"
    },
    {
      "children": [
        27
      ],
      "matrix": [
        1.0,
        0.0,
        -0.0,
        0.0,
        0.0,
        1.0,
        0.0,
        0.0,
        0.0,
        0.0,
        1.0,
        0.0,
        -0.6848649978637695,
        0.09162288904190063,
        -0.05239105224609375,
        1.0
      ],
      "name": "Object_26"
    },
    {
      "mesh": 8,
      "name": "Flowers_Flowers_0"
    },
    {
      "children": [
        29
      ],
      "matrix": [
        0.9999999999999847,
        1.7484555314694907e-07,
        0.0,
        0.0,
        -1.7484555314694907e-07,
        0.9999999999999847,
        0.0,
        0.0,
        0.0,
        0.0,
        1.0,
        0.0,
        9.501957893371582,
        -1.9520249366760254,
        47.83722686767578,
        1.0
      ],
      "name": "Flowers"
    },
    {
      "children": [
        30
      ],
      "matrix": [
        1.0,
        0.0,
        -0.0,
        0.0,
        0.0,
        1.0,
        0.0,
        0.0,
        0.0,
        0.0,
        1.0,
        0.0,
        0.6691370010375977,
        -0.06774437427520752,
        -0.22713470458984375,
        1.0
      ],
      "name": "Object_29"
    },
    {
      "mesh": 9,
      "name": "Flowers_Flowers_0"
    },
    {
      "children": [
        32
      ],
      "matrix": [
        0.9935294311230336,
        0.0,
        0.11357495098982495,
        0.0,
        0.0,
        1.0,
        0.0,
        0.0,
        -0.11357495098982495,
        0.0,
        0.9935294311230336,
        0.0,
        0.8576335906982422,
        -1.8854385614395142,
        52.97563934326172,
        1.0
      ],
      "name": "Flowers"
    },
    {
      "children": [
        33
      ],
      "matrix": [
        1.0,
        0.0,
        -0.0,
        0.0,
        0.0,
        1.0,
        0.0,
        0.0,
        0.0,
        0.0,
        1.0,
        0.0,
        1.0874778032302856,
        -0.4367579221725464,
        0.4345688819885254,
        1.0
      ],
      "name": "Object_32"
    },
    {
      "mesh": 10,
      "name": "Flowers_Flowers_0"
    },
    {
      "children": [
        35
      ],
      "matrix": [
        1.0,
        0.0,
        0.0,
        0.0,
        0.0,
        1.0,
        0.0,
        0.0,
        0.0,
        0.0,
        1.0,
        0.0,
        -2.115555763244629,
        -2.2044548988342285,
        27.674314498901367,
        1.0
      ],
      "name": "Grass"
    },
    {
      "children": [
        36
      ],
      "matrix": [
        1.0,
        0.0,
        -0.0,
        0.0,
        0.0,
        1.0,
        0.0,
        0.0,
        0.0,
        0.0,
        1.0,
        0.0,
        -5.069555282592773,
        0.4685382843017578,
        -3.1300601959228516,
        1.0
      ],
      "name": "Object_35"
    },
    {
      "mesh": 11,
      "name": "Grass_Grass_0"
    }
  ],
  "samplers": [
    {
      "magFilter": 9729,
      "minFilter": 9987,
      "wrapS": 10497,
      "wrapT": 10497
    }
  ],
  "scene": 0,
  "scenes": [
    {
      "name": "Sketchfab_Scene",
      "nodes": [
        0
      ]
    }
  ],
  "textures": [
    {
      "sampler": 0,
      "source": 0
    },
    {
      "sampler": 0,
      "source": 1
    },
    {
      "sampler": 0,
      "source": 2
    },
    {
      "sampler": 0,
      "source": 3
    },
    {
      "sampler": 0,
      "source": 4
    },
    {
      "sampler": 0,
      "source": 5
    }
  ]
}
